<svg xmlns="http://www.w3.org/2000/svg" viewBox="0 0 975.8125 1774" width="975.8125" height="1774" style="--bg:#FFFFFF;--fg:#27272A;background:var(--bg)">
<style>
  @import url('https://fonts.googleapis.com/css2?family=Inter:wght@400;500;600;700&amp;display=swap');
  text { font-family: 'Inter', system-ui, sans-serif; }
  svg {
    /* Derived from --bg and --fg (overridable via --line, --accent, etc.) */
    --_text:          var(--fg);
    --_text-sec:      var(--muted, color-mix(in srgb, var(--fg) 60%, var(--bg)));
    --_text-muted:    var(--muted, color-mix(in srgb, var(--fg) 40%, var(--bg)));
    --_text-faint:    color-mix(in srgb, var(--fg) 25%, var(--bg));
    --_line:          var(--line, color-mix(in srgb, var(--fg) 30%, var(--bg)));
    --_arrow:         var(--accent, color-mix(in srgb, var(--fg) 50%, var(--bg)));
    --_node-fill:     var(--surface, color-mix(in srgb, var(--fg) 3%, var(--bg)));
    --_node-stroke:   var(--border, color-mix(in srgb, var(--fg) 20%, var(--bg)));
    --_group-fill:    var(--bg);
    --_group-hdr:     color-mix(in srgb, var(--fg) 5%, var(--bg));
    --_inner-stroke:  color-mix(in srgb, var(--fg) 12%, var(--bg));
    --_key-badge:     color-mix(in srgb, var(--fg) 10%, var(--bg));
  }
</style>
<defs>
  <marker id="arrowhead" markerWidth="8" markerHeight="4.8" refX="8" refY="2.4" orient="auto">
    <polygon points="0 0, 8 2.4, 0 4.8" fill="var(--_arrow)" />
  </marker>
  <marker id="arrowhead-start" markerWidth="8" markerHeight="4.8" refX="0" refY="2.4" orient="auto-start-reverse">
    <polygon points="8 0, 0 2.4, 8 4.8" fill="var(--_arrow)" />
  </marker>
</defs>
<rect x="40" y="40" width="254.75" height="747" rx="0" ry="0" fill="var(--_group-fill)" stroke="var(--_node-stroke)" stroke-width="1" />
<rect x="40" y="40" width="254.75" height="28" rx="0" ry="0" fill="var(--_group-hdr)" stroke="var(--_node-stroke)" stroke-width="1" />
<text x="52" y="54" dy="0.35em" font-size="12" font-weight="600" fill="var(--_text-sec)">&quot;Stage 1: Demographics&quot;</text>
<rect x="314.75" y="664" width="322.0125000000001" height="914" rx="0" ry="0" fill="var(--_group-fill)" stroke="var(--_node-stroke)" stroke-width="1" />
<rect x="314.75" y="664" width="322.0125000000001" height="28" rx="0" ry="0" fill="var(--_group-hdr)" stroke="var(--_node-stroke)" stroke-width="1" />
<text x="326.75" y="678" dy="0.35em" font-size="12" font-weight="600" fill="var(--_text-sec)">&quot;Stage 2: Interview + Extraction&quot;</text>
<rect x="656.7625000000002" y="1299" width="279.04999999999995" height="435" rx="0" ry="0" fill="var(--_group-fill)" stroke="var(--_node-stroke)" stroke-width="1" />
<rect x="656.7625000000002" y="1299" width="279.04999999999995" height="28" rx="0" ry="0" fill="var(--_group-hdr)" stroke="var(--_node-stroke)" stroke-width="1" />
<text x="668.7625000000002" y="1313" dy="0.35em" font-size="12" font-weight="600" fill="var(--_text-sec)">&quot;Stage 3: Diagnosis&quot;</text>
<polyline points="167.375,132 167.375,252" fill="none" stroke="var(--_line)" stroke-width="0.75" marker-end="url(#arrowhead)" />
<polyline points="167.375,288 167.375,408" fill="none" stroke="var(--_line)" stroke-width="0.75" marker-end="url(#arrowhead)" />
<polyline points="167.375,444 167.375,564" fill="none" stroke="var(--_line)" stroke-width="0.75" marker-end="url(#arrowhead)" />
<polyline points="167.375,600 167.375,720" fill="none" stroke="var(--_line)" stroke-width="0.75" marker-end="url(#arrowhead)" />
<polyline points="429.6125,923 429.6125,1061 418.3125,1061" fill="none" stroke="var(--_line)" stroke-width="0.75" marker-end="url(#arrowhead)" />
<polyline points="509.3875,1043 509.3875,1023 568.4375,1023 568.4375,743.5 614.7624999999999,743.5" fill="none" stroke="var(--_line)" stroke-width="0.75" marker-end="url(#arrowhead)" />
<polyline points="520.1125,761.5 520.1125,787 440.33750000000003,787 440.33750000000003,905 499.2375,905" fill="none" stroke="var(--_line)" stroke-width="0.75" stroke-dasharray="4 4" marker-end="url(#arrowhead)" />
<polyline points="509.3875,1079 509.3875,1099 452.85,1099 452.85,1199" fill="none" stroke="var(--_line)" stroke-width="0.75" marker-end="url(#arrowhead)" />
<polyline points="452.85,1235 452.85,1355" fill="none" stroke="var(--_line)" stroke-width="0.75" marker-end="url(#arrowhead)" />
<polyline points="452.85,1391 452.85,1511" fill="none" stroke="var(--_line)" stroke-width="0.75" marker-end="url(#arrowhead)" />
<polyline points="801.2875000000001,1391 801.2875000000001,1511" fill="none" stroke="var(--_line)" stroke-width="0.75" marker-end="url(#arrowhead)" />
<polyline points="801.2875000000001,1558 801.2875000000001,1696 903.8125000000001,1696" fill="none" stroke="var(--_line)" stroke-width="0.75" marker-end="url(#arrowhead)" />
<polyline points="167.375,767 167.375,807 393.8,807 393.8,905 359.9875,905" fill="none" stroke="var(--_line)" stroke-width="0.75" marker-end="url(#arrowhead)" />
<polyline points="509.3875,1079 509.3875,1099 568.4375,1099 568.4375,1373 688.7625000000002,1373" fill="none" stroke="var(--_line)" stroke-width="0.75" marker-end="url(#arrowhead)" />
<polyline points="452.85,1558 452.85,1598 734.0250000000001,1598 734.0250000000001,1696 678.7625000000002,1696" fill="none" stroke="var(--_line)" stroke-width="0.75" marker-end="url(#arrowhead)" />
<rect x="97.75" y="96" width="139.25" height="36" rx="18" ry="18" fill="var(--_node-fill)" stroke="var(--_node-stroke)" stroke-width="0.75" />
<rect x="112.05" y="252" width="110.65" height="36" rx="6" ry="6" fill="var(--_node-fill)" stroke="var(--_node-stroke)" stroke-width="0.75" />
<rect x="61.999999999999986" y="408" width="210.75000000000003" height="36" rx="0" ry="0" fill="var(--_node-fill)" stroke="var(--_node-stroke)" stroke-width="0.75" />
<rect x="72.725" y="564" width="189.3" height="36" rx="18" ry="18" fill="var(--_node-fill)" stroke="var(--_node-stroke)" stroke-width="0.75" />
<rect x="104.9" y="727" width="124.95" height="33" fill="var(--_node-fill)" stroke="none" />
<line x1="104.9" y1="727" x2="104.9" y2="760" stroke="var(--_node-stroke)" stroke-width="0.75" />
<line x1="229.85000000000002" y1="727" x2="229.85000000000002" y2="760" stroke="var(--_node-stroke)" stroke-width="0.75" />
<ellipse cx="167.375" cy="760" rx="62.475" ry="7" fill="var(--_node-fill)" stroke="var(--_node-stroke)" stroke-width="0.75" />
<ellipse cx="167.375" cy="727" rx="62.475" ry="7" fill="var(--_node-fill)" stroke="var(--_node-stroke)" stroke-width="0.75" />
<rect x="359.9875" y="887" width="139.25" height="36" rx="18" ry="18" fill="var(--_node-fill)" stroke="var(--_node-stroke)" stroke-width="0.75" />
<rect x="418.3125" y="1043" width="182.15" height="36" rx="6" ry="6" fill="var(--_node-fill)" stroke="var(--_node-stroke)" stroke-width="0.75" />
<rect x="425.4625" y="725.5" width="189.3" height="36" rx="0" ry="0" fill="var(--_node-fill)" stroke="var(--_node-stroke)" stroke-width="0.75" />
<rect x="361.77500000000003" y="1199" width="182.15" height="36" rx="6" ry="6" fill="var(--_node-fill)" stroke="var(--_node-stroke)" stroke-width="0.75" />
<rect x="336.75" y="1355" width="232.20000000000002" height="36" rx="0" ry="0" fill="var(--_node-fill)" stroke="var(--_node-stroke)" stroke-width="0.75" />
<rect x="376.07500000000005" y="1518" width="153.55" height="33" fill="var(--_node-fill)" stroke="none" />
<line x1="376.07500000000005" y1="1518" x2="376.07500000000005" y2="1551" stroke="var(--_node-stroke)" stroke-width="0.75" />
<line x1="529.625" y1="1518" x2="529.625" y2="1551" stroke="var(--_node-stroke)" stroke-width="0.75" />
<ellipse cx="452.85" cy="1551" rx="76.775" ry="7" fill="var(--_node-fill)" stroke="var(--_node-stroke)" stroke-width="0.75" />
<ellipse cx="452.85" cy="1518" rx="76.775" ry="7" fill="var(--_node-fill)" stroke="var(--_node-stroke)" stroke-width="0.75" />
<rect x="688.7625000000002" y="1355" width="225.05" height="36" rx="0" ry="0" fill="var(--_node-fill)" stroke="var(--_node-stroke)" stroke-width="0.75" />
<rect x="706.6375000000002" y="1518" width="189.3" height="33" fill="var(--_node-fill)" stroke="none" />
<line x1="706.6375000000002" y1="1518" x2="706.6375000000002" y2="1551" stroke="var(--_node-stroke)" stroke-width="0.75" />
<line x1="895.9375000000002" y1="1518" x2="895.9375000000002" y2="1551" stroke="var(--_node-stroke)" stroke-width="0.75" />
<ellipse cx="801.2875000000001" cy="1551" rx="94.65" ry="7" fill="var(--_node-fill)" stroke="var(--_node-stroke)" stroke-width="0.75" />
<ellipse cx="801.2875000000001" cy="1518" rx="94.65" ry="7" fill="var(--_node-fill)" stroke="var(--_node-stroke)" stroke-width="0.75" />
<rect x="678.7625000000002" y="1678" width="225.05" height="36" rx="6" ry="6" fill="var(--_node-fill)" stroke="var(--_node-stroke)" stroke-width="0.75" />
<text x="167.375" y="114" text-anchor="middle" dy="0.35em" font-size="13" font-weight="500" fill="var(--_text)">Patient Message</text>
<text x="167.375" y="270" text-anchor="middle" dy="0.35em" font-size="13" font-weight="500" fill="var(--_text)">Claude Opus</text>
<text x="167.375" y="426" text-anchor="middle" dy="0.35em" font-size="13" font-weight="500" fill="var(--_text)">collect_demographics tool</text>
<text x="167.375" y="582" text-anchor="middle" dy="0.35em" font-size="13" font-weight="500" fill="var(--_text)">Inline Form: age + sex</text>
<text x="167.375" y="743.5" text-anchor="middle" dy="0.35em" font-size="13" font-weight="500" fill="var(--_text)">user_profiles</text>
<text x="429.6125" y="905" text-anchor="middle" dy="0.35em" font-size="13" font-weight="500" fill="var(--_text)">Patient Message</text>
<text x="509.3875" y="1061" text-anchor="middle" dy="0.35em" font-size="13" font-weight="500" fill="var(--_text)">Claude Opus Interview</text>
<text x="520.1125" y="743.5" text-anchor="middle" dy="0.35em" font-size="13" font-weight="500" fill="var(--_text)">One question at a time</text>
<text x="452.85" y="1217" text-anchor="middle" dy="0.35em" font-size="13" font-weight="500" fill="var(--_text)">Claude Haiku - silent</text>
<text x="452.85" y="1373" text-anchor="middle" dy="0.35em" font-size="13" font-weight="500" fill="var(--_text)">record_clinical_finding tool</text>
<text x="452.85" y="1534.5" text-anchor="middle" dy="0.35em" font-size="13" font-weight="500" fill="var(--_text)">clinical_findings</text>
<text x="801.2875000000001" y="1373" text-anchor="middle" dy="0.35em" font-size="13" font-weight="500" fill="var(--_text)">generate_differentials tool</text>
<text x="801.2875000000001" y="1534.5" text-anchor="middle" dy="0.35em" font-size="13" font-weight="500" fill="var(--_text)">differential_diagnoses</text>
<text x="791.2875000000001" y="1696" text-anchor="middle" dy="0.35em" font-size="13" font-weight="500" fill="var(--_text)">Claude generates Assessment</text>
</svg>